<svg width="32" height="32" viewBox="0 0 32 32" fill="none" xmlns="http://www.w3.org/2000/svg">
<path d="M24.0533 18.0667C23.4933 18.6134 23.1733 19.4 23.2533 20.24C23.3733 21.68 24.6933 22.7334 26.1333 22.7334H28.6666V24.32C28.6666 27.08 26.4133 29.3334 23.6533 29.3334H8.34665C5.58665 29.3334 3.33331 27.08 3.33331 24.32V15.3467C3.33331 12.5867 5.58665 10.3334 8.34665 10.3334H23.6533C26.4133 10.3334 28.6666 12.5867 28.6666 15.3467V17.2667H25.9733C25.2266 17.2667 24.5466 17.56 24.0533 18.0667Z" stroke="white" stroke-width="2" stroke-linecap="round" stroke-linejoin="round"/>
<path d="M3.33331 16.5467V10.4534C3.33331 8.86674 4.30665 7.45335 5.78665 6.89335L16.3733 2.89335C18.0266 2.26669 19.8 3.49339 19.8 5.26673V10.3334" stroke="white" stroke-width="2" stroke-linecap="round" stroke-linejoin="round"/>
<path d="M30.0784 18.6269V21.3736C30.0784 22.1069 29.4917 22.7069 28.7451 22.7335H26.1317C24.6917 22.7335 23.3717 21.6802 23.2517 20.2402C23.1717 19.4002 23.4917 18.6135 24.0517 18.0669C24.5451 17.5602 25.2251 17.2669 25.9717 17.2669H28.7451C29.4917 17.2936 30.0784 17.8935 30.0784 18.6269Z" stroke="white" stroke-width="2" stroke-linecap="round" stroke-linejoin="round"/>
<path d="M9.33331 16H18.6666" stroke="white" stroke-width="2" stroke-linecap="round" stroke-linejoin="round"/>
</svg>
