<svg width="60" height="61" viewBox="0 0 60 61" fill="none" xmlns="http://www.w3.org/2000/svg">
<path d="M29.7866 15.4306C21.3586 15.4306 14.5606 22.2301 14.5606 30.66C14.5606 39.0898 21.3586 45.8894 29.7866 45.8894C38.2146 45.8894 45.0126 39.0898 45.0126 30.66C45.0126 22.2301 38.2146 15.4306 29.7866 15.4306ZM29.7866 40.5611C24.3402 40.5611 19.8877 36.1208 19.8877 30.66C19.8877 25.1991 24.327 20.7589 29.7866 20.7589C35.2462 20.7589 39.6855 25.1991 39.6855 30.66C39.6855 36.1208 35.233 40.5611 29.7866 40.5611ZM49.1868 14.8076C49.1868 16.7825 47.5966 18.3598 45.6354 18.3598C43.6609 18.3598 42.084 16.7693 42.084 14.8076C42.084 12.8459 43.6742 11.2554 45.6354 11.2554C47.5966 11.2554 49.1868 12.8459 49.1868 14.8076ZM59.2712 18.4128C59.046 13.6544 57.9593 9.43952 54.4742 5.96684C51.0023 2.49417 46.7883 1.4073 42.031 1.16872C37.1279 0.890375 22.432 0.890375 17.5289 1.16872C12.7849 1.39405 8.57088 2.48091 5.08572 5.95359C1.60057 9.42627 0.527195 13.6412 0.288668 18.3996C0.0103855 23.3037 0.0103855 38.0029 0.288668 42.9071C0.513944 47.6655 1.60057 51.8804 5.08572 55.3531C8.57088 58.8258 12.7716 59.9126 17.5289 60.1512C22.432 60.4295 37.1279 60.4295 42.031 60.1512C46.7883 59.9259 51.0023 58.839 54.4742 55.3531C57.9461 51.8804 59.0327 47.6655 59.2712 42.9071C59.5495 38.0029 59.5495 23.317 59.2712 18.4128ZM52.937 48.1691C51.9034 50.767 49.9024 52.7685 47.2919 53.8156C43.3827 55.3663 34.1066 55.0085 29.7866 55.0085C25.4666 55.0085 16.1773 55.3531 12.2813 53.8156C9.684 52.7817 7.68302 50.7803 6.63615 48.1691C5.08572 44.2591 5.44351 34.9809 5.44351 30.66C5.44351 26.339 5.09897 17.0476 6.63615 13.1508C7.66977 10.5529 9.67075 8.55147 12.2813 7.50436C16.1905 5.95359 25.4666 6.31146 29.7866 6.31146C34.1066 6.31146 43.3959 5.96684 47.2919 7.50436C49.8892 8.53822 51.8901 10.5396 52.937 13.1508C54.4874 17.0609 54.1297 26.339 54.1297 30.66C54.1297 34.9809 54.4874 44.2723 52.937 48.1691Z" fill="#2B2B2B"/>
</svg>
