<svg width="34" height="39" viewBox="0 0 34 39" fill="none" xmlns="http://www.w3.org/2000/svg">
<g clip-path="url(#clip0_5_87)">
<path d="M17.0076 10.7403C12.1808 10.7403 8.2875 14.6479 8.2875 19.4924C8.2875 24.3369 12.1808 28.2446 17.0076 28.2446C21.8344 28.2446 25.7277 24.3369 25.7277 19.4924C25.7277 14.6479 21.8344 10.7403 17.0076 10.7403ZM17.0076 25.1824C13.8884 25.1824 11.3384 22.6307 11.3384 19.4924C11.3384 16.3541 13.8808 13.8024 17.0076 13.8024C20.1344 13.8024 22.6768 16.3541 22.6768 19.4924C22.6768 22.6307 20.1268 25.1824 17.0076 25.1824ZM28.1183 10.3823C28.1183 11.5172 27.2076 12.4237 26.0844 12.4237C24.9536 12.4237 24.0504 11.5096 24.0504 10.3823C24.0504 9.25491 24.9612 8.34084 26.0844 8.34084C27.2076 8.34084 28.1183 9.25491 28.1183 10.3823ZM33.8938 12.4541C33.7647 9.71956 33.1424 7.29729 31.1464 5.30159C29.158 3.30588 26.7446 2.68127 24.0201 2.54417C21.2121 2.3842 12.7955 2.3842 9.9875 2.54417C7.27054 2.67366 4.85714 3.29827 2.86116 5.29397C0.865179 7.28967 0.250447 9.71194 0.11384 12.4465C-0.0455353 15.2649 -0.0455353 23.7123 0.11384 26.5307C0.242858 29.2653 0.865179 31.6875 2.86116 33.6832C4.85714 35.6789 7.26295 36.3035 9.9875 36.4406C12.7955 36.6006 21.2121 36.6006 24.0201 36.4406C26.7446 36.3112 29.158 35.6865 31.1464 33.6832C33.1348 31.6875 33.7571 29.2653 33.8938 26.5307C34.0531 23.7123 34.0531 15.2725 33.8938 12.4541ZM30.2661 29.5547C29.6741 31.0477 28.5281 32.1979 27.033 32.7996C24.7942 33.6908 19.4817 33.4852 17.0076 33.4852C14.5335 33.4852 9.21339 33.6832 6.98214 32.7996C5.49464 32.2055 4.34866 31.0553 3.74911 29.5547C2.86116 27.3076 3.06607 21.9756 3.06607 19.4924C3.06607 17.0092 2.86875 11.6696 3.74911 9.4301C4.34107 7.93713 5.48705 6.78694 6.98214 6.18518C9.22098 5.29397 14.5335 5.49963 17.0076 5.49963C19.4817 5.49963 24.8018 5.30159 27.033 6.18518C28.5205 6.77932 29.6665 7.92952 30.2661 9.4301C31.154 11.6772 30.9491 17.0092 30.9491 19.4924C30.9491 21.9756 31.154 27.3153 30.2661 29.5547Z" fill="#929292"/>
</g>
<defs>
<clipPath id="clip0_5_87">
<rect width="34" height="39" fill="white"/>
</clipPath>
</defs>
</svg>
