<svg width="47" height="39" viewBox="0 0 47 39" fill="none" xmlns="http://www.w3.org/2000/svg">
<path d="M38.5202 5.31958C38.5082 5.29546 38.4883 5.27656 38.4641 5.26626C35.6645 3.93391 32.71 2.98384 29.6747 2.43983C29.6471 2.43451 29.6186 2.43835 29.5933 2.45079C29.5679 2.46324 29.547 2.48366 29.5335 2.50915C29.1312 3.26652 28.766 4.04446 28.4392 4.84001C25.1674 4.32484 21.8392 4.32484 18.5673 4.84001C18.2385 4.04244 17.8674 3.2643 17.4559 2.50915C17.4418 2.48421 17.4207 2.46426 17.3955 2.4519C17.3703 2.43953 17.3421 2.43533 17.3146 2.43983C14.2789 2.9827 11.3243 3.93284 8.52498 5.26634C8.50102 5.27688 8.4808 5.29487 8.46712 5.31783C2.86905 13.9891 1.33553 22.4471 2.08782 30.8004C2.08994 30.8209 2.096 30.8407 2.10565 30.8587C2.1153 30.8767 2.12835 30.8925 2.144 30.9052C5.4037 33.4086 9.04972 35.3195 12.9265 36.5563C12.9538 36.5648 12.9829 36.5644 13.01 36.5552C13.0371 36.546 13.0608 36.5284 13.078 36.5048C13.9106 35.3297 14.6484 34.0853 15.2838 32.7844C15.2925 32.7666 15.2975 32.747 15.2984 32.727C15.2993 32.707 15.2962 32.687 15.2891 32.6684C15.282 32.6498 15.2712 32.6329 15.2574 32.6189C15.2436 32.605 15.2271 32.5942 15.209 32.5873C14.0455 32.1256 12.9192 31.569 11.8405 30.9227C11.8209 30.9108 11.8045 30.894 11.7926 30.8739C11.7808 30.8538 11.7738 30.8309 11.7725 30.8074C11.7712 30.7839 11.7754 30.7604 11.7849 30.7389C11.7944 30.7175 11.8089 30.6989 11.827 30.6846C12.0533 30.5087 12.2798 30.3257 12.4959 30.141C12.5151 30.1246 12.5383 30.114 12.563 30.1106C12.5876 30.1071 12.6127 30.1109 12.6354 30.1215C19.7022 33.4667 27.353 33.4667 34.3362 30.1215C34.359 30.1102 34.3843 30.1059 34.4093 30.1091C34.4343 30.1122 34.458 30.1227 34.4775 30.1392C34.6937 30.324 34.9201 30.5087 35.1481 30.6846C35.1663 30.6987 35.1809 30.7173 35.1905 30.7386C35.2002 30.7599 35.2046 30.7834 35.2034 30.8069C35.2023 30.8305 35.1955 30.8534 35.1838 30.8735C35.1721 30.8937 35.1557 30.9106 35.1362 30.9227C34.06 31.5744 32.9327 32.1306 31.7662 32.5855C31.7481 32.5927 31.7316 32.6037 31.7179 32.6179C31.7042 32.6321 31.6935 32.6492 31.6866 32.6679C31.6796 32.6867 31.6766 32.7068 31.6777 32.7269C31.6787 32.7469 31.6839 32.7666 31.6928 32.7844C32.3388 34.0781 33.0755 35.3209 33.8969 36.5028C33.9136 36.527 33.9372 36.5452 33.9644 36.5548C33.9916 36.5643 34.021 36.5648 34.0484 36.5561C37.9321 35.3235 41.5845 33.4124 44.8483 30.9052C44.8642 30.8932 44.8774 30.8777 44.8871 30.86C44.8968 30.8422 44.9027 30.8225 44.9045 30.8022C45.8051 21.1449 43.3966 12.7562 38.5202 5.31958ZM16.3392 25.7141C14.2115 25.7141 12.4584 23.689 12.4584 21.2018C12.4584 18.7146 14.1775 16.6893 16.3392 16.6893C18.5177 16.6893 20.2538 18.7322 20.2198 21.2017C20.2198 23.689 18.5007 25.7141 16.3392 25.7141ZM30.6874 25.7141C28.5598 25.7141 26.8067 23.689 26.8067 21.2018C26.8067 18.7146 28.5258 16.6893 30.6874 16.6893C32.8661 16.6893 34.6021 18.7322 34.5681 21.2017C34.5681 23.689 32.8661 25.7141 30.6874 25.7141Z" fill="#929292"/>
</svg>
