<svg width="39" height="39" viewBox="0 0 39 39" fill="none" xmlns="http://www.w3.org/2000/svg">
<path d="M34.9911 11.5565C35.0158 11.9029 35.0158 12.2494 35.0158 12.5958C35.0158 23.1624 26.9734 35.3376 12.2741 35.3376C7.74554 35.3376 3.53872 34.026 0 31.7494C0.643424 31.8236 1.26202 31.8484 1.9302 31.8484C5.66681 31.8484 9.10658 30.5863 11.8534 28.4334C8.33945 28.3591 5.39464 26.0578 4.38003 22.8902C4.875 22.9644 5.36989 23.0139 5.88961 23.0139C6.60722 23.0139 7.32491 22.9149 7.99302 22.7418C4.3306 21.9993 1.58369 18.7824 1.58369 14.8972V14.7983C2.64773 15.3922 3.88515 15.7634 5.1966 15.8128C3.04368 14.3775 1.6332 11.9277 1.6332 9.15607C1.6332 7.67133 2.02907 6.31029 2.722 5.12246C6.65666 9.97271 12.571 13.1402 19.2029 13.4867C19.0792 12.8928 19.005 12.2742 19.005 11.6555C19.005 7.25063 22.5684 3.66248 26.998 3.66248C29.2994 3.66248 31.378 4.62757 32.8381 6.18658C34.6445 5.84015 36.3767 5.17197 37.911 4.25639C37.3171 6.11239 36.055 7.6714 34.3971 8.66118C36.0056 8.48804 37.5646 8.04251 38.9998 7.42392C37.9112 9.00761 36.5501 10.4181 34.9911 11.5565Z" fill="#466AEA"/>
</svg>
