<svg width="43" height="43" viewBox="0 0 43 43" fill="none" xmlns="http://www.w3.org/2000/svg">
<path fill-rule="evenodd" clip-rule="evenodd" d="M21.4366 0.72525C18.7131 0.72525 16.5053 2.93309 16.5053 5.6566V16.5057L5.65607 16.5057C2.93256 16.5057 0.72472 18.7135 0.72472 21.4371C0.72472 24.1606 2.93256 26.3684 5.65607 26.3684H16.5053V37.2173C16.5053 39.9408 18.7131 42.1486 21.4366 42.1486C24.1601 42.1486 26.368 39.9408 26.368 37.2173V26.3684H37.2167C39.9402 26.3684 42.1481 24.1606 42.1481 21.4371C42.1481 18.7135 39.9402 16.5057 37.2167 16.5057L26.368 16.5057V5.6566C26.368 2.93309 24.1601 0.72525 21.4366 0.72525Z" fill="#FF12D2"/>
</svg>
