<svg width="67" height="66" viewBox="0 0 67 66" fill="none" xmlns="http://www.w3.org/2000/svg">
<path d="M33.92 0C15.6946 0 0.920044 14.7746 0.920044 33C0.920044 51.2254 15.6946 66 33.92 66C52.1455 66 66.92 51.2254 66.92 33C66.92 14.7746 52.1455 0 33.92 0ZM49.2161 22.4427C48.7195 27.6608 46.5706 40.3236 45.477 46.1681C45.0144 48.6409 44.1035 49.4702 43.2218 49.5512C41.3057 49.7277 39.8502 48.2849 37.9941 47.0681C35.0897 45.1642 33.4489 43.979 30.6295 42.1212C27.3714 39.9742 29.4835 38.7946 31.3403 36.8651C31.8263 36.3604 40.2699 28.6803 40.4333 27.9836C40.4536 27.8964 40.4732 27.5711 40.2797 27.4002C40.0863 27.2294 39.802 27.2873 39.5964 27.3337C39.3052 27.3999 34.6653 30.4667 25.6768 36.5341C24.3599 37.4384 23.1671 37.879 22.0982 37.8559C20.9199 37.8305 18.6534 37.1898 16.9684 36.642C14.9018 35.9703 13.2593 35.6151 13.4023 34.4742C13.4768 33.8799 14.2952 33.2722 15.8573 32.6512C25.4775 28.4599 31.8925 25.6966 35.1022 24.3613C44.2666 20.5494 46.1709 19.8873 47.4121 19.8652C47.6852 19.8607 48.2955 19.9283 48.6909 20.2491C48.9539 20.4776 49.1215 20.7965 49.1606 21.1428C49.2276 21.5726 49.2462 22.0086 49.2161 22.4427Z" fill="#2B2B2B"/>
</svg>
