<svg width="69" height="56" viewBox="0 0 69 56" fill="none" xmlns="http://www.w3.org/2000/svg">
<path d="M61.5845 14.0967C61.6281 14.703 61.6281 15.3095 61.6281 15.9158C61.6281 34.4102 47.4733 55.72 21.6025 55.72C13.6322 55.72 6.22817 53.4244 0 49.4398C1.13243 49.5696 2.22116 49.613 3.39716 49.613C9.97362 49.613 16.0276 47.4041 20.8621 43.6359C14.6775 43.5059 9.49461 39.4779 7.70889 33.9338C8.58003 34.0637 9.45104 34.1503 10.3658 34.1503C11.6288 34.1503 12.8919 33.977 14.0678 33.674C7.62188 32.3745 2.7873 26.7439 2.7873 19.9439V19.7707C4.66003 20.8102 6.83788 21.4599 9.14605 21.5464C5.35689 19.0342 2.87445 14.7463 2.87445 9.89531C2.87445 7.2966 3.57117 4.91442 4.79074 2.8354C11.7158 11.3246 22.1251 16.8686 33.7973 17.475C33.5796 16.4355 33.4489 15.3528 33.4489 14.27C33.4489 6.56027 39.7206 0.280029 47.5166 0.280029C51.5671 0.280029 55.2255 1.96921 57.7952 4.6979C60.9745 4.09156 64.0233 2.92206 66.7237 1.31954C65.6783 4.56805 63.4571 7.29674 60.5391 9.02912C63.3701 8.72608 66.114 7.94628 68.64 6.86358C66.724 9.63546 64.3284 12.1042 61.5845 14.0967Z" fill="#2B2B2B"/>
</svg>
