<svg width="32" height="32" viewBox="0 0 32 32" fill="none" xmlns="http://www.w3.org/2000/svg">
<path d="M23.6685 9.39995C23.3485 9.34661 23.0152 9.3333 22.6685 9.3333H9.3352C8.96187 9.3333 8.60187 9.35996 8.2552 9.41329C8.44187 9.03996 8.70854 8.69334 9.02854 8.37334L13.3619 4.02666C15.1885 2.21332 18.1485 2.21332 19.9752 4.02666L22.3085 6.3866C23.1619 7.2266 23.6152 8.29328 23.6685 9.39995Z" stroke="#FF12D2" stroke-width="2" stroke-linecap="round" stroke-linejoin="round"/>
<path d="M12 25.3333C12 26.3333 11.72 27.28 11.2267 28.08C10.3067 29.6267 8.61333 30.6667 6.66666 30.6667C4.71999 30.6667 3.02666 29.6267 2.10666 28.08C1.61333 27.28 1.33333 26.3333 1.33333 25.3333C1.33333 22.3867 3.71999 20 6.66666 20C9.61333 20 12 22.3867 12 25.3333Z" stroke="#FF12D2" stroke-width="2" stroke-miterlimit="10" stroke-linecap="round" stroke-linejoin="round"/>
<path d="M8.65561 25.306H4.68228" stroke="#FF12D2" stroke-width="2" stroke-miterlimit="10" stroke-linecap="round" stroke-linejoin="round"/>
<path d="M6.66666 23.3594V27.346" stroke="#FF12D2" stroke-width="2" stroke-miterlimit="10" stroke-linecap="round" stroke-linejoin="round"/>
<path d="M29.3333 16V22.6667C29.3333 26.6667 26.6667 29.3333 22.6667 29.3333H10.1733C10.5867 28.9867 10.9467 28.56 11.2267 28.08C11.72 27.28 12 26.3333 12 25.3333C12 22.3867 9.61334 20 6.66667 20C5.06667 20 3.64001 20.7067 2.66667 21.8133V16C2.66667 12.3733 4.85334 9.84001 8.25334 9.41334C8.6 9.36001 8.96 9.33334 9.33334 9.33334H22.6667C23.0133 9.33334 23.3467 9.34666 23.6667 9.39999C27.1067 9.79999 29.3333 12.3467 29.3333 16Z" stroke="#FF12D2" stroke-width="2" stroke-linecap="round" stroke-linejoin="round"/>
<path d="M29.3333 16.6667H25.3333C23.8667 16.6667 22.6667 17.8667 22.6667 19.3333C22.6667 20.8 23.8667 22 25.3333 22H29.3333" stroke="#FF12D2" stroke-width="2" stroke-linecap="round" stroke-linejoin="round"/>
</svg>
