<svg width="73" height="53" viewBox="0 0 73 53" fill="none" xmlns="http://www.w3.org/2000/svg">
<path d="M71.4429 8.9748C70.608 5.80422 68.1479 3.30717 65.0243 2.45976C59.3626 0.919922 36.66 0.919922 36.66 0.919922C36.66 0.919922 13.9574 0.919922 8.29564 2.45976C5.17208 3.30731 2.71199 5.80422 1.87703 8.9748C0.359985 14.7217 0.359985 26.7119 0.359985 26.7119C0.359985 26.7119 0.359985 38.7022 1.87703 44.4491C2.71199 47.6197 5.17208 50.0127 8.29564 50.8601C13.9574 52.3999 36.66 52.3999 36.66 52.3999C36.66 52.3999 59.3625 52.3999 65.0243 50.8601C68.1479 50.0127 70.608 47.6197 71.4429 44.4491C72.96 38.7022 72.96 26.7119 72.96 26.7119C72.96 26.7119 72.96 14.7217 71.4429 8.9748ZM29.2349 37.5982V15.8257L48.2099 26.7122L29.2349 37.5982Z" fill="#2B2B2B"/>
</svg>
